<svg width="265" height="34" viewBox="0 0 265 34" fill="none" xmlns="http://www.w3.org/2000/svg">
<path d="M263 31.0073H2" stroke="white" stroke-width="4" stroke-linecap="round"/>
<path d="M150 30.0073L115 30.0073" stroke="#6E2DD7" stroke-width="4"/>
<path d="M127.4 3.20732C126.411 1.88885 127.352 0.00732417 129 0.0073243L136 0.00732486C137.648 0.00732499 138.589 1.88885 137.6 3.20733L134.1 7.87399C133.3 8.94066 131.7 8.94066 130.9 7.87399L127.4 3.20732Z" fill="white"/>
<path d="M115 11.0073L116.031 11.0073C117.917 11.0073 119.693 11.8939 120.826 13.401L124.571 18.3805C128.572 23.6997 136.555 23.6997 140.556 18.3805L144.3 13.401C145.434 11.8939 147.21 11.0073 149.096 11.0073L150 11.0073" stroke="white" stroke-width="4"/>
</svg>
