<svg width="102" height="88" viewBox="0 0 102 88" fill="none" xmlns="http://www.w3.org/2000/svg">
<g filter="url(#filter0_dii_406_422)">
<path fill-rule="evenodd" clip-rule="evenodd" d="M51 9.92167C50.7991 9.98356 50.4904 10.0897 50.0494 10.2665C48.8783 10.7219 47.4868 11.3762 45.6983 12.3002C42.0626 14.1747 37.5106 16.8229 32.3903 20.0856C26.4766 23.8493 23.7971 25.7443 20.4576 28.1059L20.4576 28.106C17.9835 29.8556 15.1472 31.8614 10.3653 35.073C8.45437 36.8016 5.34784 36.8016 3.43689 35.073C1.52104 33.3488 1.52104 30.5458 3.43689 28.8216C14.2521 20.8947 16.206 19.5728 26.7358 12.8617C32.0277 9.49282 36.9717 6.61472 40.8377 4.62083C42.8025 3.60841 44.6596 2.74189 46.1148 2.16716C47.3986 1.65874 49.2458 1 51 1C52.7542 1 54.6014 1.65874 55.8852 2.16716C57.3404 2.74189 59.1975 3.60841 61.1623 4.62083C65.0283 6.61472 69.9723 9.49282 75.2642 12.8617C85.794 19.5728 87.7478 20.8947 98.5631 28.8216C100.479 30.5458 100.479 33.3488 98.5631 35.073C96.6522 36.8016 93.5456 36.8016 91.6347 35.073C86.8531 31.8616 84.0169 29.8559 81.543 28.1063L81.5427 28.1062L81.5424 28.106C78.2029 25.7443 75.5234 23.8494 69.6097 20.0856C64.4894 16.8229 59.9374 14.1747 56.3017 12.3002C54.5132 11.3762 53.1216 10.7219 51.9506 10.2665C51.5096 10.0897 51.2009 9.98356 51 9.92167ZM6.89904 80.579C6.89904 78.1386 9.09419 76.1579 11.7989 76.1579H90.197C92.9017 76.1579 95.0968 78.1386 95.0968 80.579C95.0968 83.0194 92.9017 85 90.197 85H11.7989C9.09419 85 6.89904 83.0194 6.89904 80.579ZM46.101 67.3156C46.101 69.756 48.2961 71.7366 51.0008 71.7366C53.7056 71.7366 55.9007 69.756 55.9007 67.3156V36.3682C55.9007 33.9278 53.7056 31.9472 51.0008 31.9472C48.2961 31.9472 46.101 33.9278 46.101 36.3682V67.3156ZM75.5008 71.7366C72.7961 71.7366 70.601 69.756 70.601 67.3156V36.3682C70.601 33.9278 72.7961 31.9472 75.5008 31.9472C78.2056 31.9472 80.4007 33.9278 80.4007 36.3682V67.3156C80.4007 69.756 78.2056 71.7366 75.5008 71.7366ZM21.601 67.3156C21.601 69.756 23.7961 71.7366 26.5008 71.7366C29.2056 71.7366 31.4007 69.756 31.4007 67.3156V36.3682C31.4007 33.9278 29.2056 31.9472 26.5008 31.9472C23.7961 31.9472 21.601 33.9278 21.601 36.3682V67.3156Z" fill="white"/>
</g>
<defs>
<filter id="filter0_dii_406_422" x="0.75" y="0.5" width="100.5" height="86.75" filterUnits="userSpaceOnUse" color-interpolation-filters="sRGB">
<feFlood flood-opacity="0" result="BackgroundImageFix"/>
<feColorMatrix in="SourceAlpha" type="matrix" values="0 0 0 0 0 0 0 0 0 0 0 0 0 0 0 0 0 0 127 0" result="hardAlpha"/>
<feOffset dy="1"/>
<feGaussianBlur stdDeviation="0.625"/>
<feColorMatrix type="matrix" values="0 0 0 0 0 0 0 0 0 0 0 0 0 0 0 0 0 0 0.25 0"/>
<feBlend mode="normal" in2="BackgroundImageFix" result="effect1_dropShadow_406_422"/>
<feBlend mode="normal" in="SourceGraphic" in2="effect1_dropShadow_406_422" result="shape"/>
<feColorMatrix in="SourceAlpha" type="matrix" values="0 0 0 0 0 0 0 0 0 0 0 0 0 0 0 0 0 0 127 0" result="hardAlpha"/>
<feOffset dy="-0.5"/>
<feGaussianBlur stdDeviation="0.25"/>
<feComposite in2="hardAlpha" operator="arithmetic" k2="-1" k3="1"/>
<feColorMatrix type="matrix" values="0 0 0 0 0 0 0 0 0 0 0 0 0 0 0 0 0 0 0.15 0"/>
<feBlend mode="normal" in2="shape" result="effect2_innerShadow_406_422"/>
<feColorMatrix in="SourceAlpha" type="matrix" values="0 0 0 0 0 0 0 0 0 0 0 0 0 0 0 0 0 0 127 0" result="hardAlpha"/>
<feOffset dy="-0.5"/>
<feGaussianBlur stdDeviation="0.5"/>
<feComposite in2="hardAlpha" operator="arithmetic" k2="-1" k3="1"/>
<feColorMatrix type="matrix" values="0 0 0 0 0.2 0 0 0 0 0.839216 0 0 0 0 0.65098 0 0 0 0.5 0"/>
<feBlend mode="normal" in2="effect2_innerShadow_406_422" result="effect3_innerShadow_406_422"/>
</filter>
</defs>
</svg>
