<svg width="35" height="24" viewBox="0 0 35 24" fill="none" xmlns="http://www.w3.org/2000/svg">
<path d="M9.11861 17V6.81818H12.7479C13.5367 6.81818 14.1913 6.95407 14.7116 7.22585C15.2353 7.49763 15.6264 7.87382 15.8849 8.3544C16.1435 8.83168 16.2727 9.38352 16.2727 10.0099C16.2727 10.633 16.1418 11.1816 15.88 11.6555C15.6214 12.1262 15.2304 12.4924 14.7067 12.7543C14.1863 13.0161 13.5317 13.147 12.7429 13.147H9.99361V11.8246H12.6037C13.1009 11.8246 13.5052 11.7533 13.8168 11.6108C14.1316 11.4683 14.362 11.2611 14.5078 10.9893C14.6536 10.7176 14.7266 10.3911 14.7266 10.0099C14.7266 9.62547 14.652 9.29238 14.5028 9.01065C14.357 8.72893 14.1267 8.51349 13.8118 8.36435C13.5002 8.21188 13.0909 8.13565 12.5838 8.13565H10.6548V17H9.11861ZM14.1449 12.4062L16.6605 17H14.9105L12.4446 12.4062H14.1449ZM21.1449 18.2727V5.54545H21.9602V18.2727H21.1449ZM23.6953 9.4929C23.6423 9.02225 23.4235 8.65767 23.0391 8.39915C22.6546 8.13731 22.1707 8.00639 21.5874 8.00639C21.1697 8.00639 20.8085 8.07268 20.5036 8.20526C20.1986 8.33452 19.9616 8.51349 19.7926 8.74219C19.6269 8.96757 19.544 9.22443 19.544 9.51278C19.544 9.75473 19.6004 9.96354 19.7131 10.1392C19.8291 10.3149 19.9799 10.4624 20.1655 10.5817C20.3544 10.6977 20.5566 10.7955 20.772 10.875C20.9875 10.9512 21.1946 11.0142 21.3935 11.0639L22.3878 11.3224C22.7126 11.402 23.0457 11.5097 23.3871 11.6456C23.7285 11.7815 24.045 11.9605 24.3366 12.1825C24.6283 12.4046 24.8636 12.6797 25.0426 13.0078C25.2249 13.3359 25.3161 13.7287 25.3161 14.1861C25.3161 14.7628 25.1669 15.2749 24.8686 15.7223C24.5736 16.1697 24.1444 16.5227 23.581 16.7812C23.0208 17.0398 22.343 17.169 21.5476 17.169C20.7853 17.169 20.1257 17.0481 19.5689 16.8061C19.0121 16.5642 18.5762 16.2211 18.2614 15.777C17.9465 15.3295 17.7725 14.7992 17.7393 14.1861H19.2805C19.3104 14.554 19.4297 14.8606 19.6385 15.1058C19.8506 15.3478 20.1207 15.5284 20.4489 15.6477C20.7803 15.7637 21.1432 15.8217 21.5376 15.8217C21.9718 15.8217 22.358 15.7538 22.696 15.6179C23.0374 15.4787 23.3059 15.2865 23.5014 15.0412C23.697 14.7926 23.7947 14.5026 23.7947 14.1712C23.7947 13.8696 23.7086 13.6226 23.5362 13.4304C23.3672 13.2382 23.1368 13.0791 22.8452 12.9531C22.5568 12.8272 22.2304 12.7161 21.8658 12.62L20.6626 12.2919C19.8473 12.0698 19.201 11.7434 18.7237 11.3125C18.2498 10.8816 18.0128 10.3116 18.0128 9.60227C18.0128 9.01562 18.1719 8.50355 18.4901 8.06605C18.8082 7.62855 19.2391 7.28883 19.7827 7.04688C20.3262 6.80161 20.9394 6.67898 21.6222 6.67898C22.3116 6.67898 22.9197 6.79995 23.4467 7.0419C23.977 7.28385 24.3946 7.61695 24.6996 8.04119C25.0045 8.46212 25.1636 8.94602 25.1768 9.4929H23.6953Z" fill="#757575"/>
<rect x="0.5" y="0.5" width="34" height="23" rx="3.5" stroke="#DDDDDD"/>
</svg>
