<svg width="42" height="38" viewBox="0 0 42 38" fill="none" xmlns="http://www.w3.org/2000/svg">
<ellipse cx="21" cy="19" rx="21" ry="19" fill="white" fill-opacity="0.85"/>
<path fill-rule="evenodd" clip-rule="evenodd" d="M31.409 19.0473C31.409 23.926 26.817 27.8856 21.1591 27.8856C15.5011 27.8856 10.9092 23.926 10.9092 19.0473C10.9092 14.1685 15.5011 10.209 21.1591 10.209C26.817 10.209 31.409 14.1685 31.409 19.0473ZM18.0843 21.0359C18.7915 21.0359 19.3655 20.541 19.3655 19.9311C19.3655 19.3213 18.7915 18.8263 18.0843 18.8263C17.377 18.8263 16.803 19.3213 16.803 19.9311C16.803 20.541 17.377 21.0359 18.0843 21.0359ZM22.9525 19.9311C22.9525 19.3213 23.5265 18.8263 24.2338 18.8263C24.941 18.8263 25.515 19.3213 25.515 19.9311C25.515 20.541 24.941 21.0359 24.2338 21.0359C23.5265 21.0359 22.9525 20.541 22.9525 19.9311ZM26.7967 15.5117C23.8242 15.5117 21.2207 14.133 19.7857 12.0825C20.2265 12.0206 20.6877 11.9764 21.1592 11.9764C24.1317 11.9764 26.7352 13.3552 28.1702 15.4057C27.7294 15.4675 27.2682 15.5117 26.7967 15.5117ZM13.3892 16.8111C15.1419 15.9538 16.4949 14.5573 17.1407 12.8869C15.3879 13.7442 14.0349 15.1407 13.3892 16.8111ZM29.0206 17.0675C29.2359 17.695 29.3589 18.3579 29.3589 19.0473C29.3589 22.945 25.6791 26.1179 21.1589 26.1179C16.6387 26.1179 12.959 22.945 12.959 19.0473C12.959 19.0322 12.9602 19.0171 12.9614 19.0024C12.9636 18.974 12.9658 18.9468 12.959 18.9236C15.624 18.0574 17.7662 16.2809 18.8425 14.0183C20.7284 16.0069 23.5882 17.2796 26.7964 17.2796C27.5651 17.2796 28.3031 17.2001 29.0206 17.0675Z" fill="#AD8EF7"/>
</svg>
