<svg width="51" height="27" viewBox="0 0 51 27" fill="none" xmlns="http://www.w3.org/2000/svg">
<path fill-rule="evenodd" clip-rule="evenodd" d="M6.375 7.13184H12.75C13.9187 7.13184 14.875 7.63809 14.875 8.25684V13.8818H11.6875V12.1943H7.4375V13.8818H4.25V8.25684C4.25 7.63809 5.20625 7.13184 6.375 7.13184ZM17 8.81934V7.13184H29.75V8.81934H24.9688V13.8818H21.7812V8.81934H17ZM11.6875 10.5068H7.4375V8.81934H11.6875V10.5068ZM35.0625 7.13184H44.625C45.7938 7.13184 46.75 7.63809 46.75 8.25684V13.8818H43.5625V8.80809H41.4375V12.7568H38.25V8.81934H36.125V13.8818H32.9375V8.25684C32.9375 7.63809 33.8937 7.13184 35.0625 7.13184Z" fill="#D0BFFD"/>
</svg>
