<svg width="38" height="32" viewBox="0 0 38 32" fill="none" xmlns="http://www.w3.org/2000/svg">
<path fill-rule="evenodd" clip-rule="evenodd" d="M37.583 15.5833C37.583 24.1853 29.1644 31.1666 18.7915 31.1666C8.41859 31.1666 0 24.1853 0 15.5833C0 6.98132 8.41859 0 18.7915 0C29.1644 0 37.583 6.98132 37.583 15.5833ZM13.1544 19.0895C14.451 19.0895 15.5034 18.2169 15.5034 17.1416C15.5034 16.0664 14.451 15.1937 13.1544 15.1937C11.8578 15.1937 10.8055 16.0664 10.8055 17.1416C10.8055 18.2169 11.8578 19.0895 13.1544 19.0895ZM22.0804 17.1416C22.0804 16.0664 23.1327 15.1937 24.4293 15.1937C25.7259 15.1937 26.7783 16.0664 26.7783 17.1416C26.7783 18.2169 25.7259 19.0895 24.4293 19.0895C23.1327 19.0895 22.0804 18.2169 22.0804 17.1416ZM29.1266 9.34989C23.6771 9.34989 18.904 6.91889 16.2732 3.30357C17.0812 3.19449 17.9269 3.11657 18.7913 3.11657C24.2408 3.11657 29.0138 5.54756 31.6447 9.16289C30.8366 9.27197 29.991 9.34989 29.1266 9.34989ZM4.54713 11.6407C7.76048 10.1291 10.241 7.66696 11.4248 4.72172C8.21147 6.2333 5.73099 8.69546 4.54713 11.6407ZM33.2049 12.0925C33.5996 13.1989 33.8251 14.3677 33.8251 15.5832C33.8251 22.4554 27.0789 28.0498 18.7919 28.0498C10.5048 28.0498 3.75866 22.4554 3.75866 15.5832C3.75866 15.5566 3.76085 15.53 3.76298 15.504C3.76711 15.4539 3.77104 15.4061 3.75866 15.365C8.64445 13.8378 12.5719 10.7056 14.545 6.71627C18.0026 10.2225 23.2454 12.4665 29.1272 12.4665C30.5366 12.4665 31.8895 12.3263 33.2049 12.0925Z" fill="#D0BFFD"/>
</svg>
