<svg width="37" height="23" viewBox="0 0 37 23" fill="none" xmlns="http://www.w3.org/2000/svg">
<path fill-rule="evenodd" clip-rule="evenodd" d="M33.3 0H3.7C1.6465 0 0.0185 1.25563 0.0185 2.82163L0 19.7514C0 21.3174 1.6465 22.5731 3.7 22.5731H33.3C35.3535 22.5731 37 21.3174 37 19.7514V2.82163C37 1.25563 35.3535 0 33.3 0ZM16.6497 18.3406H20.3497V16.9298H22.1997C23.2172 16.9298 24.0497 16.2949 24.0497 15.519V11.2865C24.0497 10.5106 23.2172 9.87569 22.1997 9.87569H16.6497V8.46488H24.0497V5.64324H20.3497V4.23243H16.6497V5.64324H14.7997C13.7822 5.64324 12.9497 6.27811 12.9497 7.05406V11.2865C12.9497 12.0625 13.7822 12.6973 14.7997 12.6973H20.3497V14.1081H12.9497V16.9298H16.6497V18.3406ZM3.69948 19.7516H33.2995V2.82176H3.69948V19.7516Z" fill="#D0BFFD"/>
</svg>
